<svg width="34" height="34" viewBox="0 0 34 34" fill="none" xmlns="http://www.w3.org/2000/svg">
<path d="M23.65 0H9.68333C3.61667 0 0 3.61667 0 9.68333V23.6333C0 29.7167 3.61667 33.3333 9.68333 33.3333H23.6333C29.7 33.3333 33.3167 29.7167 33.3167 23.65V9.68333C33.3333 3.61667 29.7167 0 23.65 0ZM15.8333 25.4167C15.8333 26.0167 15.2333 26.4167 14.6833 26.1833C12.6667 25.3167 10.0333 24.5167 8.2 24.2833L7.88333 24.25C6.86667 24.1167 6.03333 23.1667 6.03333 22.1333V9.3C6.03333 8.01667 7.06667 7.06667 8.33333 7.16667C10.4167 7.33333 13.5 8.33333 15.4333 9.43333C15.7 9.58333 15.8333 9.86667 15.8333 10.15V25.4167ZM27.3 22.1167C27.3 23.15 26.4667 24.1 25.45 24.2333L25.1 24.2667C23.2833 24.5167 20.6667 25.3 18.65 26.15C18.1 26.3833 17.5 25.9833 17.5 25.3833V10.1333C17.5 9.83333 17.65 9.55 17.9167 9.4C19.85 8.31667 22.8667 7.35 24.9167 7.16667H24.9833C26.2667 7.16667 27.3 8.2 27.3 9.48333V22.1167Z" fill="#546FFF"/>
</svg>
